<?xml version="1.0" encoding="UTF-8" standalone="no"?>
<!DOCTYPE svg PUBLIC "-//W3C//DTD SVG 1.1//EN" "http://www.w3.org/Graphics/SVG/1.1/DTD/svg11.dtd">
<svg xmlns="http://www.w3.org/2000/svg" version="1.1" viewBox="0.00 0.00 516.00 273.00">
<path fill="#fcd463" d="
  M 252.51 50.68
  C 251.78 50.84 250.83 50.64 250.14 50.28
  Q 239.21 44.67 239.69 33.08
  Q 239.91 27.61 243.26 23.56
  Q 247.20 18.80 252.23 17.60
  Q 254.77 16.99 258.33 16.97
  Q 261.11 16.96 263.60 18.21
  C 271.33 22.11 275.66 29.70 273.61 38.41
  Q 271.74 46.36 263.22 50.45
  Q 262.33 50.88 261.41 50.95
  Q 260.88 51.00 260.89 51.53
  Q 261.07 60.04 262.25 66.25
  Q 262.55 67.87 262.81 69.58
  Q 263.15 71.85 263.49 72.89
  Q 269.84 92.72 285.76 105.73
  C 288.54 108.00 291.64 109.79 294.70 111.65
  Q 295.24 111.98 294.94 112.53
  Q 285.98 128.68 289.65 146.32
  Q 292.20 158.62 302.09 165.84
  C 305.05 168.00 309.62 169.53 313.28 169.53
  Q 327.35 169.55 336.09 159.57
  Q 351.71 141.73 346.66 117.50
  Q 346.55 116.95 347.09 116.80
  C 357.03 114.17 365.10 108.55 372.86 101.66
  C 378.01 97.08 382.10 90.92 385.42 84.99
  Q 388.80 78.93 391.06 70.24
  Q 391.61 68.13 391.78 66.08
  Q 391.84 65.44 391.19 65.44
  C 390.59 65.44 390.04 65.18 389.61 64.77
  Q 385.47 60.87 383.96 55.34
  C 381.95 48.00 386.24 40.39 392.93 36.81
  C 396.55 34.86 399.89 34.25 404.03 35.38
  Q 413.79 38.04 416.90 48.29
  Q 418.10 52.26 416.72 56.34
  Q 413.62 65.49 404.84 68.10
  C 403.54 68.49 401.88 68.09 400.95 68.81
  A 0.75 0.73 41.7 0 1 400.11 68.85
  Q 399.08 68.24 397.59 68.24
  Q 397.21 68.24 397.27 68.61
  Q 397.69 71.15 396.61 73.28
  Q 396.36 73.77 396.37 74.33
  Q 396.41 75.88 395.75 77.09
  C 395.17 78.14 395.49 79.38 395.02 80.50
  Q 394.46 81.83 394.32 83.21
  Q 394.23 84.21 394.00 85.16
  Q 388.70 107.57 384.40 126.51
  Q 383.22 131.72 381.80 137.16
  C 381.32 139.00 381.45 140.80 380.60 142.50
  Q 380.36 142.98 380.37 143.51
  Q 380.41 145.08 379.71 146.33
  Q 379.47 146.76 379.47 147.24
  Q 379.48 148.89 378.71 150.32
  Q 378.47 150.76 378.48 151.26
  Q 378.52 153.38 377.64 155.29
  A 2.26 2.23 57.9 0 0 377.43 156.24
  Q 377.43 157.87 376.69 159.30
  Q 376.46 159.75 376.47 160.25
  Q 376.48 161.90 375.70 163.33
  Q 375.46 163.77 375.46 164.27
  Q 375.47 166.13 374.83 167.84
  C 374.26 169.35 374.52 170.96 373.72 172.27
  Q 373.42 172.75 373.43 173.31
  Q 373.47 174.86 372.80 176.11
  C 372.03 177.56 372.54 179.49 371.74 181.12
  C 371.09 182.47 371.65 184.01 370.67 185.19
  Q 370.40 185.52 370.43 185.95
  Q 370.58 187.87 369.64 189.33
  Q 369.47 189.60 369.46 189.92
  L 369.38 191.85
  Q 369.36 192.48 368.73 192.48
  Q 352.89 192.44 337.08 192.51
  Q 336.58 192.51 336.12 192.73
  Q 335.72 192.92 335.28 192.92
  L 144.81 193.18
  Q 144.40 193.18 144.30 192.73
  L 116.01 69.82
  Q 115.87 69.21 115.28 69.40
  L 114.71 69.59
  Q 113.95 69.83 113.20 69.58
  C 111.19 68.93 109.30 69.15 107.37 68.39
  Q 100.26 65.55 97.38 58.77
  Q 97.03 57.96 96.98 57.08
  C 96.92 56.10 96.21 55.55 96.08 54.50
  Q 95.70 51.42 96.34 48.54
  Q 98.98 36.68 111.47 34.21
  Q 115.59 33.40 119.92 35.39
  Q 132.72 41.27 130.81 55.08
  Q 129.88 61.76 123.40 66.40
  Q 122.98 66.70 122.94 67.21
  Q 122.85 68.32 123.44 69.18
  A 2.63 2.59 25.0 0 1 123.89 70.39
  Q 124.00 71.31 124.28 72.20
  Q 132.96 99.23 156.89 112.21
  Q 159.31 113.52 162.23 114.54
  Q 164.82 115.45 167.47 116.40
  Q 167.95 116.57 168.00 117.08
  Q 168.14 118.56 167.59 119.89
  Q 167.17 120.93 167.03 122.12
  Q 164.79 141.25 176.03 156.33
  Q 180.96 162.94 187.94 166.27
  Q 196.03 170.12 203.53 168.90
  Q 205.68 168.55 207.99 167.55
  Q 209.92 166.71 211.60 165.47
  Q 221.52 158.15 224.04 146.65
  Q 225.77 138.75 224.88 131.27
  Q 224.16 125.15 221.89 119.06
  Q 220.61 115.63 218.44 112.26
  Q 218.13 111.77 218.64 111.48
  C 221.78 109.77 224.78 108.01 227.68 105.70
  Q 230.46 103.49 232.87 101.25
  Q 237.76 96.70 242.59 89.44
  Q 247.39 82.24 250.37 72.80
  Q 251.04 70.69 251.27 68.61
  C 251.47 66.77 252.18 65.39 252.25 63.47
  Q 252.36 60.44 253.03 57.50
  Q 253.44 55.70 253.24 51.24
  Q 253.21 50.53 252.51 50.68
  Z"
/>
<path fill="#fcd463" d="
  M 368.79 213.42
  L 144.62 214.14
  A 0.34 0.34 0.0 0 1 144.28 213.80
  L 144.29 203.32
  A 0.34 0.34 0.0 0 1 144.63 202.98
  L 368.79 203.78
  A 0.34 0.34 0.0 0 1 369.13 204.12
  L 369.13 213.08
  A 0.34 0.34 0.0 0 1 368.79 213.42
  Z"
/>
<path fill="#fcd463" d="
  M 368.80 246.89
  L 144.62 247.44
  A 0.33 0.33 0.0 0 1 144.29 247.11
  L 144.29 224.18
  A 0.33 0.33 0.0 0 1 144.62 223.85
  L 368.80 224.58
  A 0.33 0.33 0.0 0 1 369.13 224.91
  L 369.13 246.56
  A 0.33 0.33 0.0 0 1 368.80 246.89
  Z"
/>
</svg>
